<svg xmlns="http://www.w3.org/2000/svg" width="25" height="25" viewBox="0 0 25 25"><path d="M12.5,0A12.5,12.5,0,1,0,25,12.5,12.514,12.514,0,0,0,12.5,0Zm-.732,6.136A17.09,17.09,0,0,1,8.5,5.676c.168-.4.351-.781.548-1.144a6.325,6.325,0,0,1,2.723-2.911Zm0,1.466v4.166H7.193a18.407,18.407,0,0,1,.8-4.708A18.546,18.546,0,0,0,11.768,7.6Zm0,5.631V17.4a18.546,18.546,0,0,0-3.775.542,18.407,18.407,0,0,1-.8-4.708Zm0,5.632v4.514a6.325,6.325,0,0,1-2.723-2.911c-.2-.363-.379-.746-.548-1.144a17.087,17.087,0,0,1,3.271-.459Zm1.465,0a17.089,17.089,0,0,1,3.271.459c-.168.4-.351.781-.548,1.144a6.325,6.325,0,0,1-2.723,2.911Zm0-1.466V13.232h4.575a18.407,18.407,0,0,1-.8,4.708A18.546,18.546,0,0,0,13.232,17.4Zm0-5.631V7.6a18.546,18.546,0,0,0,3.775-.542,18.407,18.407,0,0,1,.8,4.708Zm0-5.632V1.622a6.325,6.325,0,0,1,2.723,2.911c.2.363.379.746.548,1.144a17.089,17.089,0,0,1-3.271.459Zm4.01-2.3a11.12,11.12,0,0,0-1.185-1.78A11.048,11.048,0,0,1,19.964,4.38a13.84,13.84,0,0,1-2.043.884A14.841,14.841,0,0,0,17.243,3.834Zm-9.486,0a14.84,14.84,0,0,0-.678,1.431A13.861,13.861,0,0,1,5.036,4.38,11.048,11.048,0,0,1,8.942,2.053a11.125,11.125,0,0,0-1.185,1.78ZM6.584,6.641a19.615,19.615,0,0,0-.857,5.127H1.49a10.984,10.984,0,0,1,2.5-6.291A15.066,15.066,0,0,0,6.584,6.641Zm-.857,6.592a19.614,19.614,0,0,0,.857,5.127,15.066,15.066,0,0,0-2.589,1.164,10.984,10.984,0,0,1-2.5-6.291Zm1.353,6.5a14.84,14.84,0,0,0,.678,1.431,11.133,11.133,0,0,0,1.185,1.78A11.046,11.046,0,0,1,5.036,20.62,13.841,13.841,0,0,1,7.079,19.736Zm10.164,1.431a14.841,14.841,0,0,0,.678-1.431,13.861,13.861,0,0,1,2.043.884,11.048,11.048,0,0,1-3.907,2.326A11.124,11.124,0,0,0,17.243,21.166Zm1.174-2.807a19.615,19.615,0,0,0,.857-5.127H23.51a10.984,10.984,0,0,1-2.5,6.291,15.066,15.066,0,0,0-2.589-1.164Zm.857-6.592a19.614,19.614,0,0,0-.857-5.127,15.066,15.066,0,0,0,2.589-1.164,10.984,10.984,0,0,1,2.5,6.291Zm0,0"/></svg>